<?xml version="1.0" encoding="UTF-8" standalone="no"?>
<!DOCTYPE svg PUBLIC "-//W3C//DTD SVG 1.1//EN" "http://www.w3.org/Graphics/SVG/1.1/DTD/svg11.dtd">
<svg width="100%" height="100%" viewBox="0 0 525 142" version="1.1" xmlns="http://www.w3.org/2000/svg" xmlns:xlink="http://www.w3.org/1999/xlink" xml:space="preserve" xmlns:serif="http://www.serif.com/" style="fill-rule:evenodd;clip-rule:evenodd;stroke-linejoin:round;stroke-miterlimit:2;">
    <g id="Background" transform="matrix(1,0,0,1,-32,0)">
        <g transform="matrix(0.491897,0,0,0.482498,-22.833384,-10.77607)">
            <path d="M223.496,88.494C228.146,94.082 232.321,110.479 232.829,112.474C232.895,112.734 233.128,113.65 232.571,115.826C187.509,128.148 178.535,144.456 167.345,154.285C164.808,156.513 158.969,140.118 139.675,107.423C138.459,105.363 140.085,104.307 141.406,105.616C158.895,122.936 178.875,109.339 178.506,85.5C178.356,75.859 182.125,87.852 192.673,92.077C208.74,98.511 221.25,89.738 223.496,88.494Z" style="fill:rgb(242,142,17);"/>
            <path d="M223.496,88.494C242.661,74.906 236.968,56.813 241.364,57.918C242.363,58.169 242.038,58.539 243.748,63.41C250.512,82.676 272.145,90.241 289.359,82.214C298.416,77.991 303.414,63.906 304.876,71.423C305.619,75.242 310.536,113.966 310.575,114.507C311.063,121.361 292.575,102.324 232.571,115.826C233.128,113.65 232.895,112.734 232.829,112.474C232.321,110.479 228.146,94.082 223.496,88.494Z" style="fill:rgb(247,182,35);"/>
            <path d="M238.492,54.828C222.827,53.224 224.643,38.198 229.9,33.943C245.026,21.699 263.637,50.843 238.492,54.828Z" style="fill:rgb(246,183,37);"/>
            <path d="M307.502,65.754C283.427,62.239 302.002,35.355 314.14,47.857C319.152,53.019 318.681,64.823 307.502,65.754Z" style="fill:rgb(243,154,17);"/>
            <path d="M176.41,79.162C152.84,81.771 164.252,49.702 180.105,60.995C182.378,62.614 189.92,73.682 176.41,79.162Z" style="fill:rgb(242,144,20);"/>
            <path d="M141.84,93.524C138.806,111.107 113.846,98.794 122.722,86.659C127.742,79.796 141.016,79.962 141.84,93.524Z" style="fill:rgb(245,161,17);"/>
        </g>
        <path d="M95.451,50.043C96.088,49.963 96.153,49.912 98.516,49.657C110.932,48.319 120.342,52.808 124.626,56.341C132.57,62.895 134.329,70.041 135.537,74.49C136.051,76.381 136.696,83.991 136.62,85.504C136.066,96.615 133.875,101.52 131.076,106.236C130.543,107.135 127.397,110.977 127.297,111.441C127.084,112.435 127.014,112.761 133.904,122.29C134.018,122.448 135.313,124.238 133.575,124.695C132.589,124.954 121.542,124.768 120.496,124.75C116.948,124.69 117.537,123.424 115.292,120.654C113.191,118.061 112.509,119.84 105.468,120.098C101.539,120.242 85.644,121.416 76.004,108.898C75.184,107.833 70.314,101.509 69.184,93.551C65.227,65.691 80.188,51.849 95.451,50.043ZM87.951,81.517C87.789,89.074 87.661,92.067 91.44,98.539C94.325,103.482 102.687,105.715 102.916,103.639C103.047,102.457 99.933,98.768 98.895,97.221C97.083,94.52 96.959,94.6 96.863,94.335C96.21,92.539 98.299,92.479 98.497,92.474C99.612,92.442 110.364,92.137 112.44,92.695C113.954,93.102 114.708,95.738 115.918,93.838C116.5,92.923 118.268,84.077 116.358,77.545C116.309,77.377 115.043,70.005 108.423,66.654C103.289,64.055 95.12,64.624 90.622,72.569C89.061,75.327 89.307,75.418 88.414,78.472C88.344,78.709 88.379,78.698 87.951,81.517Z" style="fill:rgb(254,254,254);"/>
        <path d="M531.94,72.823C531.952,72.68 532.145,72.595 532.156,72.453C532.261,71.188 530.38,66.867 534.505,66.979C547.982,67.344 549.351,66.273 549.88,68.393C549.912,68.519 550.143,116.503 549.88,119.538C549.412,124.937 545.07,130.079 541.3,132.145C534.611,135.812 532.374,135.629 525.499,136.489C521.137,137.034 509.575,136.076 503.594,131.379C500.823,129.203 500.842,129.172 498.824,126.293C498.666,125.915 497.077,122.11 497.15,121.451C497.321,119.895 498.141,120.036 508.5,120.076C513.391,120.096 513.617,119.855 516.124,121.948C516.711,122.438 519.655,124.895 525.449,124.026C532.326,122.996 531.739,115.539 532.093,112.55L531.302,111.863C531.034,111.914 530.807,111.512 530.538,111.563C530.363,111.597 530.431,111.914 530.317,112.051C527.42,115.55 522.205,117.371 517.512,117.676C515.65,117.798 509.487,116.625 509.458,116.614C497.803,112.357 495.453,101.57 496.007,90.474C496.011,90.39 494.796,67.854 514.466,66.099C526.449,65.03 529.925,72.43 530.568,73.413C530.726,73.577 530.722,73.857 530.88,74.021C531.597,74.762 531.887,74.384 532.17,73.381C532.225,73.187 531.885,73.016 531.94,72.823ZM523.482,80.977C521.501,81.152 521.435,80.893 519.66,81.816C519.511,81.893 518.456,82.441 517.893,82.936C512.681,87.527 514.631,96.258 514.888,97.412C516.122,102.937 520.815,105.014 523.525,104.769C532.542,103.956 534.049,89.187 528.571,83.433C526.441,81.196 523.824,81.054 523.482,80.977Z" style="fill:rgb(247,182,35);"/>
        <path d="M418.472,118.548L418.585,119.018C417.252,119.048 397.015,119.003 396.399,118.834C394.917,118.426 395.224,117.966 387.787,106.32C384.715,101.509 382.126,97.207 381.645,96.408C380.813,95.025 381.112,94.347 379.502,94.51C378.676,94.594 377.758,96.346 376.226,98.292C374.506,100.475 374.786,100.724 374.779,115.5C374.778,117.711 374.995,119.149 371.498,119.034C370.304,118.994 363.231,118.761 356.56,119.048C356.551,118.953 356.349,118.958 356.34,118.862C356.277,118.185 356.447,118.215 356.418,117.522C356.301,114.694 355.924,114.734 355.924,108.5C355.924,92.5 355.923,76.5 355.923,60.5C355.924,52.136 355.368,50.717 358.504,50.666C373.496,50.419 373.766,50.451 374.454,51.528C375.118,52.566 374.707,75.168 374.679,75.494C374.553,76.945 374.101,77.366 375.463,77.871C376.068,78.095 376.116,77.983 376.44,77.434C377.137,76.25 378.185,74.471 386.632,63.599C394.322,53.703 394.106,53.573 394.79,52.727C396.821,50.22 397.627,50.664 403.5,50.664C415.118,50.664 415.604,50.48 415.72,51.427C415.792,52.015 415.828,52.311 411.639,57.606C404.999,66.001 405.298,66.205 398.64,74.607C394.532,79.791 394.506,79.894 394.363,80.456C394.141,81.329 393.974,81.984 399.709,90.365C399.907,90.655 413.216,111.467 413.318,111.617C416.811,116.748 416.283,117.039 416.587,117.481C416.587,117.481 418.321,118.463 418.472,118.548Z" style="fill:rgb(247,182,35);"/>
        <path d="M354.411,119.061C336.9,118.897 336.874,119.229 335.402,118.848C333.524,118.361 329.651,110.683 326.262,105.652C325.178,104.043 323.228,99.665 321.615,102.584C319.832,105.811 321.703,116.997 320.412,118.421C319.61,119.306 319.386,119.068 305.494,118.965C301.768,118.937 302.457,117.374 302.454,112.5C302.451,107.78 302.418,55.684 302.455,53.499C302.513,50.016 304.187,50.659 310.5,50.661C318.695,50.663 320.478,50.277 320.831,52.446C320.845,52.534 320.952,79.189 320.772,81.493C320.7,82.42 320.261,84.224 321.487,84.187C322.482,84.156 322.238,83.728 323.674,81.632C324.977,79.731 331.323,71.094 331.679,70.631C333.925,67.711 333.81,66.966 337.499,67.047C351.287,67.348 351.275,66.747 352.456,66.938C354.866,67.327 352.956,69.562 352.81,69.733C352.017,70.66 344.221,80.511 339.811,85.757C337.353,88.681 336.592,89.168 338.76,92.33C339.401,93.265 351.439,112.037 351.678,112.384C354.833,116.975 354.743,118.243 354.702,118.809C354.693,118.937 354.42,118.933 354.411,119.061Z" style="fill:rgb(254,254,254);"/>
        <path d="M227.021,113.726C226.069,113.681 225.925,113.374 225.306,114.105C225.225,114.2 225.238,114.181 224.293,115.283C218.571,121.95 201.575,122.086 196.089,110.68C193.475,105.245 195.26,98.742 195.797,97.638C200.334,88.301 211.181,88.141 213.539,87.699C222.922,85.942 227.208,88.406 226.66,84.48C225.896,79 217.689,77.599 213.997,82.837C212.851,84.464 212.47,84.276 201.5,84.267C198.242,84.264 196.596,84.642 197.38,81.471C198.437,77.198 200.335,70.517 211.427,67.235C217.988,65.293 239.375,63.318 244.39,79.528C245.532,83.219 244.639,101.224 245.022,116.494C245.097,119.494 243.64,118.967 234.5,118.965C229.089,118.965 226.678,119.643 226.895,116.472C226.991,115.082 227.025,115.11 227.021,113.726ZM220.515,97.952C219.013,98.08 213.204,98.068 212.789,102.512C212.25,108.278 225.224,109.24 226.709,100.532C227.294,97.097 224.173,97.84 220.515,97.952Z" style="fill:rgb(254,254,254);"/>
        <path d="M458.979,73.392C459.205,73.525 459.233,73.376 459.479,73.521C460.316,74.015 460.216,74.163 460.299,74.171C460.504,74.188 460.442,73.78 460.561,73.613C461.005,72.992 461.054,73.061 461.389,72.401C462.805,69.609 467.407,66.709 471.46,66.21C490.085,63.916 492.1,78.683 492.553,80.487C493.219,83.133 492.992,117.227 492.895,117.599C492.45,119.304 490.849,118.968 484.5,118.967C476.091,118.965 475.399,119.354 474.845,117.447C474.418,115.981 475.578,92.735 474.153,86.579C472.733,80.448 465.524,79.222 461.649,83.628C458.108,87.653 459.842,99.397 459.471,116.499C459.406,119.499 458.006,118.965 451.5,118.966C442.579,118.966 441.175,119.539 441.118,116.511C441.116,116.418 441.109,69.721 441.119,69.484C441.262,65.963 443.139,67.374 456.497,66.981C460.612,66.86 459.47,70.239 458.979,73.392Z" style="fill:rgb(247,182,35);"/>
        <path d="M172.565,112.58C171.268,114.663 171.374,115.312 168.438,117.409C162.716,121.497 152.413,120.433 148.352,117.752C145.311,115.744 144.657,114.719 144.505,114.496C139.626,107.37 140.122,106.792 140.12,74.5C140.12,68.747 139.392,66.845 143.501,66.978C153.673,67.308 157.307,66.516 158.132,67.77C159.114,69.26 157.909,91.805 158.839,98.452C159.958,106.446 167.249,105.426 169.348,104.232C174.508,101.296 173.833,96.948 173.827,77.5C173.824,68.437 173.294,66.891 176.505,66.98C189.938,67.348 191.352,66.263 191.879,68.393C192.08,69.205 191.953,96.091 191.942,98.5C191.859,116.096 192.283,116.121 191.898,117.6C191.342,119.735 189.681,118.66 176.504,119.034C172.335,119.153 174.265,114.848 174.161,113.546C174.149,113.402 173.955,113.315 173.944,113.171C173.889,112.976 174.236,112.807 174.182,112.612C173.898,111.597 173.607,111.168 172.872,111.952C172.713,112.122 172.725,112.41 172.565,112.58Z" style="fill:rgb(254,254,254);"/>
        <path d="M273.496,66.041C273.988,66.046 283.914,65.197 291.668,71.269C299.181,77.151 299.155,85.141 299.15,86.498C299.144,88.524 297.693,88.161 288.5,88.159C283.875,88.158 282.973,88.682 281.913,85.376C280.448,80.808 275.373,78.759 271.675,80.818C267.072,83.379 266.097,90.113 266.918,97.446C267.809,105.399 275.286,108.663 279.967,103.965C282.074,101.85 282.078,100.066 282.33,99.429C283.012,97.71 283.575,98.034 294.5,98.035C297.79,98.035 299.423,97.18 299.112,100.452C299.012,101.502 298.995,101.474 298.912,102.541C298.696,105.311 296.684,109.48 295.203,111.256C287.198,120.855 277.882,120.067 272.489,119.979C271.519,119.963 265.418,119.863 260.695,117.153C249.698,110.844 248.479,99.923 248.196,96.532C246.51,76.369 259.091,65.698 273.496,66.041Z" style="fill:rgb(254,254,254);"/>
        <path d="M418.472,118.548C418.53,118.152 418.886,117.839 418.943,117.443C419.046,116.734 418.507,116.75 418.508,108.5C418.513,68.531 418.435,68.446 418.874,67.774C419.474,66.854 419.733,67.049 430.5,67.049C434.697,67.048 436.751,66.432 436.877,69.484C436.909,70.277 436.883,111.819 436.88,115.5C436.879,117.799 437.132,119.155 433.499,119.034C427.374,118.828 422.212,119.053 420.44,118.951C420.078,118.93 419.728,118.772 419.365,118.785C419.094,118.795 418.856,119.008 418.585,119.018L418.472,118.548Z" style="fill:rgb(247,182,35);"/>
        <path d="M427.496,45.036C428.893,45.089 430.66,44.887 432.639,46.283C432.998,46.537 435.515,47.938 436.518,51.495C439.255,61.197 425.328,66.867 419.796,58.308C418.333,56.044 416.427,45.673 427.496,45.036Z" style="fill:rgb(247,182,35);"/>
        <path d="M172.565,112.58C172.725,112.41 172.713,112.122 172.872,111.952C173.607,111.168 173.898,111.597 174.182,112.612C174.236,112.807 173.889,112.976 173.944,113.171L172.565,112.58Z" style="fill:rgb(155,145,178);"/>
        <path d="M531.94,72.823C531.885,73.016 532.225,73.187 532.17,73.381C531.887,74.384 531.597,74.762 530.88,74.021C530.722,73.857 530.726,73.577 530.568,73.413L531.94,72.823Z" style="fill:rgb(154,126,90);"/>
    </g>
</svg>
